<svg xmlns="http://www.w3.org/2000/svg" data-name="Layer 1" viewBox="0 0 98 98"><g data-name="&lt;Group&gt;"><polygon fill="#00efd1" points="62.1 41 62.1 57 36.5 57 36.5 68 17.9 49 36.5 30 36.5 41 62.1 41" data-name="&lt;Group&gt;"/><g data-name="&lt;Group&gt;"><g data-name="&lt;Group&gt;"><path fill="#083863" d="M36.5,70a2,2,0,0,1-1.4-.6l-18.7-19a2.1,2.1,0,0,1,0-2.8l18.7-19a2,2,0,0,1,2.2-.5A2.2,2.2,0,0,1,38.5,30v9H62.1a1.7,1.7,0,0,1,1.4.6,2,2,0,0,1,.6,1.4V57a2,2,0,0,1-2,2H38.5v9a2.2,2.2,0,0,1-1.2,1.9ZM20.7,49,34.5,63.1V57a2,2,0,0,1,2-2H60.1V43H36.5a2,2,0,0,1-2-2V34.9Z" data-name="&lt;Compound Path&gt;"/></g><g data-name="&lt;Group&gt;"><rect width="4" height="20" x="66.1" y="39" fill="#083863" data-name="&lt;Path&gt;" rx="2" ry="2"/></g><g data-name="&lt;Group&gt;"><rect width="4" height="20" x="72.1" y="39" fill="#083863" data-name="&lt;Path&gt;" rx="2" ry="2"/></g><g data-name="&lt;Group&gt;"><rect width="4" height="20" x="78.1" y="39" fill="#083863" data-name="&lt;Path&gt;" rx="2" ry="2"/></g></g></g></svg>